<?xml version="1.0" encoding="utf-8"?>
<!-- Generator: Adobe Illustrator 21.1.0, SVG Export Plug-In . SVG Version: 6.00 Build 0)  -->
<svg version="1.1" id="Laag_1" xmlns="http://www.w3.org/2000/svg" xmlns:xlink="http://www.w3.org/1999/xlink" x="0px" y="0px"
	 viewBox="0 0 192 188" style="enable-background:new 0 0 192 188;" xml:space="preserve">
<style type="text/css">
	.st0{fill:#FF8212;}
</style>
<g>
	<path class="st0" d="M96.2,147.2c0.6-0.6,1.2-1.1,1.7-1.6c11.8-11.3,23.5-22.6,35.3-33.9c1.4-1.4,3-1.6,4.5-0.8
		c1.9,1.1,2.3,3.5,0.9,5.1c-1.6,1.7-3.3,3.3-4.9,4.9c-11.5,11.4-23.1,22.8-34.6,34.2c-1.1,1.1-2.3,1.7-3.9,1.2
		c-0.7-0.2-1.3-0.7-1.8-1.2c-6.8-6.7-13.6-13.4-20.4-20.2c-6.2-6.2-12.5-12.4-18.7-18.6c-1.4-1.3-1.6-2.9-0.8-4.4
		c1.1-1.8,3.5-2.4,5.1-1c1.4,1.2,2.7,2.5,4,3.7c10.9,10.5,21.9,21,32.8,31.6C95.6,146.7,95.9,146.9,96.2,147.2z"/>
</g>
</svg>
