<?xml version="1.0" encoding="utf-8"?>
<!-- Generator: Adobe Illustrator 22.0.0, SVG Export Plug-In . SVG Version: 6.00 Build 0)  -->
<svg version="1.1" id="Laag_1" xmlns="http://www.w3.org/2000/svg" xmlns:xlink="http://www.w3.org/1999/xlink" x="0px" y="0px"
	 viewBox="0 0 141.7 141.7" style="enable-background:new 0 0 141.7 141.7;" xml:space="preserve">
<style type="text/css">
	.st0{fill:#F49314;}
	.st1{fill:none;}
	.st2{fill:#8E8E8E;}
</style>
<polygon class="st0" points="14.2,86.1 30,85.9 30.8,111.2 112.3,111.9 112.3,88.5 114,85.7 129.3,86.2 128.3,126.1 122.2,129.9 
	19,129.7 13.8,125.2 12.3,92.6 "/>
<g>
	<g>
		<path class="st1" d="M71.8,130.2c-15.5,0-31,0-46.5,0c-1.6,0-3.2-0.2-4.7-0.4c-4-0.6-6.6-3.6-6.7-7.7c-0.1-10.9-0.1-21.8-0.1-32.7
			c0-3.4,0.3-3.6,3.7-3.6c3.3,0,6.7,0.1,10,0c2.4-0.1,3.2,0.9,3.2,3.2c-0.1,6.7,0,13.5,0,20.2c0,3.3,0.3,3.6,3.6,3.6
			c25,0,50,0,75,0.1c2.5,0,3.3-0.8,3.3-3.3c-0.2-7,0-14-0.2-21c0-2.1,0.8-2.9,2.8-2.8c3.5,0.1,7,0,10.5,0c3.5,0,3.8,0.3,3.8,3.8
			c-0.1,8.2-0.1,16.3-0.2,24.5c0,2.7,0,5.3,0,8c-0.1,4.3-2.7,7.2-6.9,7.9c-1.3,0.2-2.6,0.3-4,0.3C102.8,130.2,87.3,130.2,71.8,130.2
			z"/>
		<path class="st2" d="M51.3,132.7c-8.7,0-17.4,0-26,0c-1.6,0-3.2-0.1-5.1-0.4c-5.2-0.8-8.8-4.9-8.8-10.2
			c-0.1-10.1-0.1-20.8-0.1-32.8c0-4.8,1.3-6.1,6.2-6.2c1.1,0,2.2,0,3.2,0c2.2,0,4.5,0,6.7-0.1c1.9-0.1,3.3,0.4,4.3,1.3
			c1.4,1.3,1.5,3.2,1.5,4.4c-0.1,5.6-0.1,11.3,0,16.8l0,3.4c0,0.4,0,0.8,0,1.1c0.3,0,0.6,0,1,0h20.3c17.9,0,36.5,0,54.7,0.1
			c0.3,0,0.6,0,0.7,0c0-0.1,0-0.4,0-0.7c-0.1-3.8-0.1-7.7-0.1-11.5c0-3.1,0-6.3-0.1-9.5c0-1.8,0.4-3.1,1.4-4c1.4-1.4,3.3-1.4,4-1.3
			c2.3,0,4.7,0,7,0c1.1,0,2.3,0,3.4,0c1.8,0,3.7,0,5,1.3c1.3,1.3,1.3,3.2,1.3,5c-0.1,8.2-0.1,16.3-0.2,24.5c0,0.9,0,1.9,0,2.8
			c0,1.7,0,3.5,0,5.2c-0.1,5.4-3.6,9.4-9,10.3c-1.3,0.2-2.7,0.3-4.4,0.3c-11.8,0-23.7,0-35.5,0l-21.2,0
			C58.1,132.7,54.7,132.7,51.3,132.7z M16.3,88.2c0,0.3,0,0.7,0,1.1c0,11.9,0,22.6,0.1,32.7c0,2.9,1.7,4.8,4.5,5.3
			c1.6,0.2,3,0.4,4.4,0.4c12.1,0,24.2,0,36.2,0l21.2,0c11.8,0,23.7,0,35.5,0c1.4,0,2.6-0.1,3.6-0.2c3.1-0.5,4.7-2.4,4.8-5.5
			c0-1.7,0-3.4,0-5.1c0-1,0-1.9,0-2.9c0.1-8.2,0.1-16.3,0.2-24.5c0-0.5,0-1,0-1.3c-0.4,0-1.1,0-1.8,0c-1,0-1.9,0-2.9,0
			c-2.3,0-4.7,0-7.1,0c-0.1,0-0.2,0-0.2,0c0,0.1,0,0.2,0,0.3c0.1,3.2,0.1,6.4,0.1,9.6c0,3.7,0,7.6,0.1,11.4c0,1.3-0.1,3.1-1.4,4.4
			c-1.3,1.3-3,1.5-4.4,1.5c-18.2-0.1-36.8-0.1-54.7-0.1H34.2c-4.7,0-6-1.4-6.1-6.1l0-3.4c0-5.5,0-11.2,0-16.9c0-0.3,0-0.5,0-0.7
			c-0.1,0-0.3,0-0.5,0c-2.3,0.1-4.7,0.1-6.9,0.1c-1.1,0-2.1,0-3.2,0C17.2,88.2,16.7,88.2,16.3,88.2z"/>
	</g>
	<g>
		<path class="st0" d="M59.9,31.7c0-5.9,0.1-11.8,0-17.7c0-2.3,0.8-3.4,3.1-3.5c5.8-0.4,11.7-0.2,17.5-0.1c2.4,0,3,1.7,3,3.7
			c0,3.9,0,7.8,0,11.7c0,7,0,14,0,21c0,4.2,0.3,4.4,4.6,4.4c2.2,0,4.3,0,6.5,0.1c1.1,0,2.2,0.5,2.6,1.6c0.5,1.1,0,2.1-0.7,3
			c-6.6,8.5-13.1,17-19.7,25.5c-0.2,0.2-0.3,0.4-0.5,0.6c-3.6,4.5-4.9,4.5-8.7,0.1C60.9,74.2,54.7,65.7,47.6,58
			c-0.2-0.2-0.3-0.4-0.4-0.6c-0.6-1.3-2.3-2.3-1.5-4c0.8-1.8,2.6-1.1,4-1.1c2.6-0.1,5.2-0.1,7.7,0c1.8,0.1,2.5-0.7,2.5-2.5
			C59.9,43.7,59.9,37.7,59.9,31.7C59.9,31.7,59.9,31.7,59.9,31.7z"/>
		<path class="st2" d="M72.2,87.8c-2.5,0-4.4-1.9-6.3-4.1c-3-3.5-6-7.1-8.8-10.6c-3.6-4.5-7.4-9.1-11.3-13.4
			c-0.3-0.3-0.6-0.7-0.8-1.2c-0.1-0.1-0.3-0.4-0.5-0.7c-0.7-1-2.2-2.9-1-5.5c1.4-2.9,4.3-2.7,5.5-2.6c0.2,0,0.5,0,0.7,0
			c2.6-0.1,5.2-0.1,7.8,0c0,0,0,0,0,0c0-4.3,0-8.8,0-13l0-7.5c0-0.9,0-1.7,0-2.6c0-4.1,0-8.4,0-12.6c-0.1-3.7,1.9-5.8,5.4-6.1
			c5-0.3,10.1-0.2,14.9-0.2l2.7,0c1.3,0,5.5,0.5,5.5,6.2c0,3.5,0,7,0,10.5l0,1.2l0,6.7c0,4.8,0,9.6,0,14.3c0,0.4,0,1.3,0.1,1.9
			c0.6,0.1,1.6,0.1,2.1,0.1l1.5,0c1.6,0,3.4,0,5.1,0.1c2.2,0.1,4,1.2,4.9,3.1c1.2,2.7-0.5,4.8-1,5.5C93.5,63.9,88.5,70.5,83.4,77
			l-4.7,6.1c-0.1,0.1-0.2,0.3-0.3,0.4c-1.7,2.2-3.6,4.3-6.1,4.3C72.2,87.8,72.2,87.8,72.2,87.8z M49.3,56.2
			C49.4,56.2,49.4,56.3,49.3,56.2c4.1,4.5,7.9,9.2,11.6,13.8c2.8,3.5,5.7,7.1,8.7,10.5c1.6,1.8,2.2,2.2,2.5,2.4
			c0.2-0.1,0.9-0.6,2.4-2.4c0.1-0.1,0.2-0.2,0.2-0.3l0.2-0.3l4.5-5.9c5-6.5,10.1-13.1,15.2-19.6c0.2-0.2,0.3-0.4,0.3-0.5
			c-0.1,0-0.2,0-0.4-0.1c-1.6,0-3.3-0.1-4.9,0l-1.5,0c-5.7,0-7.1-1.4-7.1-6.9c0-4.8,0-9.6,0-14.4l0-6.6l0-1.2c0-3.5,0-7,0-10.5
			c0-0.9-0.2-1.2-0.2-1.2c0,0-0.1,0-0.4,0l-2.8,0c-4.8-0.1-9.7-0.2-14.5,0.2c-0.4,0-0.6,0.1-0.7,0.1c0,0.1-0.1,0.4-0.1,0.9
			c0.1,4.2,0.1,8.6,0,12.7c0,1.7,0,3.4,0,5.1l0,5c0,4.3,0,8.6,0,13c0,0.6,0,2.5-1.3,3.8c-0.9,0.9-2.1,1.3-3.7,1.2
			c-2.5-0.1-5.1-0.1-7.6,0c-0.5,0-0.9,0-1.3,0c-0.1,0-0.1,0-0.2,0c0,0,0.1,0.1,0.1,0.1C48.7,55.2,49.1,55.6,49.3,56.2z M49.4,56.3
			C49.4,56.3,49.4,56.3,49.4,56.3C49.4,56.3,49.4,56.3,49.4,56.3z"/>
	</g>
</g>
</svg>
