<?xml version="1.0" encoding="utf-8"?>
<!-- Generator: Adobe Illustrator 22.0.0, SVG Export Plug-In . SVG Version: 6.00 Build 0)  -->
<svg version="1.1" id="Laag_1" xmlns="http://www.w3.org/2000/svg" xmlns:xlink="http://www.w3.org/1999/xlink" x="0px" y="0px"
	 viewBox="0 0 141.7 141.7" style="enable-background:new 0 0 141.7 141.7;" xml:space="preserve">
<style type="text/css">
	.st0{fill:#FF0855;}
</style>
<g>
	<path class="st0" d="M83,60l-27-4l10.6-23.3c-4.5-5.4-10.1-9.4-17.2-11.8c-17.3-5.7-34,3.2-39.1,20.7C6.6,54.2,9,65.5,16.8,75.9
		c8,10.8,17.9,19.8,28.4,28.1c3.2,2.6,6.5,5,9.9,7.4L83,60z"/>
	<path class="st0" d="M132.5,42.8c-3.3-11.9-10.3-20.3-22.7-22.8c-13.2-2.7-24.1,2.1-33,11.7L67,49l27,4l-33,62.6
		c2.8,1.9,5.6,3.7,8.4,5.5c1.2,0.8,2.2,1,3.6,0.1c15.8-10.1,30.9-21.2,43.9-34.8c6-6.3,11.5-13,14.9-21.2c1.2-2.7,1.7-5.6,2.3-8.5
		c0-1.7,0-3.3,0-5C133.5,48.8,133.3,45.8,132.5,42.8z"/>
</g>
</svg>
