<?xml version="1.0" encoding="utf-8"?>
<!-- Generator: Adobe Illustrator 22.0.0, SVG Export Plug-In . SVG Version: 6.00 Build 0)  -->
<svg version="1.1" id="Laag_1" xmlns="http://www.w3.org/2000/svg" xmlns:xlink="http://www.w3.org/1999/xlink" x="0px" y="0px"
	 viewBox="0 0 141.7 141.7" style="enable-background:new 0 0 141.7 141.7;" xml:space="preserve">
<style type="text/css">
	.st0{fill:#FF0855;stroke:#FF0855;stroke-width:6;stroke-miterlimit:10;}
</style>
<g>
	<path class="st0" d="M134,51.8c0,1.7,0,3.3,0,5c-0.5,2.9-1.1,5.8-2.3,8.5c-3.4,8.2-8.9,14.9-14.9,21.2
		c-13,13.6-28.1,24.7-43.9,34.8c-1.3,0.8-2.3,0.6-3.6-0.1c-8.4-5.3-16.5-11-24.3-17.2c-10.5-8.3-20.3-17.3-28.4-28.1
		C9,65.5,6.6,54.2,10.3,41.6C15.5,24.1,32.1,15.2,49.4,21c9,3,15.8,8.7,20.7,16.8c1,1.7,1.2,1.7,2.2,0c1.1-1.9,2.4-3.8,3.9-5.5
		c9-10,20-15,33.5-12.3c12.4,2.5,19.4,10.9,22.7,22.8C133.3,45.8,133.5,48.8,134,51.8z"/>
</g>
</svg>
