<?xml version="1.0" encoding="utf-8"?>
<!-- Generator: Adobe Illustrator 22.0.0, SVG Export Plug-In . SVG Version: 6.00 Build 0)  -->
<svg version="1.1" id="Laag_1" xmlns="http://www.w3.org/2000/svg" xmlns:xlink="http://www.w3.org/1999/xlink" x="0px" y="0px"
	 viewBox="0 0 141.7 141.7" style="enable-background:new 0 0 141.7 141.7;" xml:space="preserve">
<style type="text/css">
	.st0{fill:#FFFFFF;}
	.st1{fill:#D6D6D6;}
</style>
<path class="st0" d="M70,36.4c0,0-16.3-24-42.3-14.7S10,67.4,10,67.4s44,49,57.3,52.7l3.3,2.7c0,0,49.7-31,59-50s-4.7-46-4.7-46
	s-15.7-16-43.3-1.3l-9,11H70z"/>
<g>
	<g>
		<path class="st1" d="M71.3,124.8c-1.4,0-2.5-0.5-3.4-1l-0.2-0.1c-8.7-5.5-16.9-11.3-24.6-17.4c-12.5-9.9-21.7-19-28.9-28.6
			C5.8,66.3,3.6,53.9,7.4,40.8c2.8-9.4,8.7-16.8,16.7-21c7.9-4.1,17.2-4.7,26.2-1.6C59,21,65.9,26.3,71.2,33.9
			c0.9-1.3,1.8-2.5,2.8-3.6c10.4-11.5,22.6-16,36.3-13.3c12.7,2.6,21.1,11,25,24.9c0.7,2.3,1,4.5,1.3,6.7c0.1,0.9,0.2,1.7,0.4,2.6
			l0,0.5l0,5.5c-0.5,2.8-1.1,6.1-2.5,9.2c-3.8,9.1-9.9,16.2-15.5,22.1c-11.5,12-25.6,23.2-44.5,35.3
			C73.3,124.5,72.2,124.8,71.3,124.8z M70.8,118.6c0.2,0.1,0.4,0.2,0.4,0.2c0,0,0.1,0,0.1-0.1c18.4-11.8,32.2-22.7,43.3-34.3
			c5.2-5.4,10.9-12.1,14.3-20.3c1-2.3,1.6-4.7,2.1-7.6V52c-0.1-0.8-0.3-1.7-0.4-2.5c-0.3-2-0.5-4-1.1-5.8
			c-3.3-11.9-10-18.6-20.4-20.7c-11.7-2.3-21.7,1.4-30.7,11.4c-1.2,1.4-2.4,3.1-3.5,5c-0.6,1-1.6,2.8-3.7,2.8c0,0,0,0,0,0
			c-2.1,0-3.1-1.7-3.7-2.8c-4.6-7.7-10.9-12.7-19.1-15.5c-7.5-2.5-15.1-2.1-21.6,1.3c-6.5,3.4-11.4,9.6-13.7,17.3
			C9.8,53.8,11.8,64.2,19,74.1c6.9,9.2,15.8,18,27.8,27.5C54.3,107.6,62.4,113.3,70.8,118.6z"/>
	</g>
</g>
</svg>
