<?xml version="1.0" encoding="utf-8"?>
<!-- Generator: Adobe Illustrator 21.1.0, SVG Export Plug-In . SVG Version: 6.00 Build 0)  -->
<svg version="1.1" id="Laag_1" xmlns="http://www.w3.org/2000/svg" xmlns:xlink="http://www.w3.org/1999/xlink" x="0px" y="0px"
	 viewBox="0 0 192 188" style="enable-background:new 0 0 192 188;" xml:space="preserve">
<style type="text/css">
	.st0{fill:#FFFFFF;}
</style>
<g>
	<path class="st0" d="M95.3,43.8c-1.3,0.1-3.7,0.3-6.2,0.7C83,45.4,77.4,48,72.8,52.1c-7.5,6.5-12.3,14.6-13.6,24.7
		c-0.7,6-0.1,11.6,1.7,17.2c1.8,6,5.7,10.8,9.9,15.4c3.5,3.8,6,8.1,7.2,13.1c0.4,1.7,0.6,3.5,1.1,5.2c0.6,2,2.2,2.7,3.8,1.4
		c0.7-0.5,1.2-1.9,1.1-2.8c-0.4-2.7-0.9-5.4-1.8-8c-1.5-4.5-3.7-8.8-7.2-12c-7.7-7.3-11.4-16-10.8-26.7c0.3-6.3,2.2-11.8,5.8-16.9
		c3.2-4.5,7.2-8.3,12.4-10.7c3.2-1.5,6.6-2.4,10.1-2.8c6.3-0.7,12.5,0,18.1,2.9c9.3,4.8,15.5,12.4,17.6,22.8
		c1.9,9,0.4,17.6-5.3,25.1c-2.3,3-5.1,5.6-7.5,8.6c-3.1,3.9-5.1,8.3-5.7,13.2c-0.1,0.6-0.9,1.4-1.5,1.6c-2.1,0.7-4.3,1.1-6.5,1.6
		c-6.8,1.6-13.6,3.3-20.4,4.9c-2,0.5-3.5,2.1-3.2,3.6c0.3,1.5,2.4,2.2,4.5,1.7c4.3-1.1,8.7-2.2,13-3.3c5.4-1.4,10.8-2.8,16.1-4.1
		c1.8-0.5,2.9-1.5,3-3.4c0.3-4.1,1.7-8,4.1-11.3c2-2.7,4.3-5.2,6.5-7.7c4.7-5.3,7.7-11.5,8.5-18.5c1-8.3-0.1-16.5-4.4-23.9
		C122,50.7,111.2,43.9,95.3,43.8z M100.8,98.7c0.1,0.1,0.2,0.2,0.3,0.2c-0.6,2.4-1.3,4.8-1.9,7.2c-1.1,4.5-1.7,9.1-1.4,13.8
		c0,0.7,0.1,1.6,0.5,2c0.6,0.6,1.6,1.1,2.4,1.1c0.6,0,1.4-0.7,1.7-1.3c0.4-0.7,0.3-1.5,0.4-2.3c0.2-2.8,0.1-5.7,0.7-8.5
		c1.2-4.9,2.8-9.7,4.3-14.5c0.9-2.8-0.2-4.5-3.1-4.5c-2.7,0-5,1-7.2,2.5c-0.9,0.6-1.5,0.7-2.5,0c-2.5-1.9-5.4-2.7-8.6-2.5
		c-1.9,0.1-3,1.6-2.5,3.5c0.2,0.6,0.4,1.2,0.7,1.8c2.9,6.7,4.3,13.7,4.5,21c0,0.9-0.2,1.8,0.1,2.6c0.3,0.8,0.9,1.8,1.6,2.1
		c1,0.5,2.3,0.2,2.9-0.9c0.4-0.7,0.8-1.6,0.7-2.4c-0.1-2.8-0.3-5.7-0.7-8.5c-0.3-2.5-0.9-4.9-1.5-7.4c-0.4-1.8-1-3.6-1.5-5.4
		c0.1-0.1,0.2-0.2,0.3-0.2c0.6,0.7,1.3,1.3,1.8,2c1.7,2.5,3.5,2.6,5.6,0.4C99.2,99.9,100,99.3,100.8,98.7z M114.7,146.3
		c0-1.8-2-2.8-4.1-2.2c-5.2,1.3-10.3,2.7-15.5,4c-4.9,1.2-9.7,2.4-14.6,3.7c-1.9,0.5-2.4,1.4-2,3c0.3,1.4,1.6,2.2,3.2,1.9
		c1.9-0.4,3.7-0.9,5.6-1.4c8.2-2,16.4-3.9,24.6-5.9C113.7,148.9,114.7,147.8,114.7,146.3z M81.5,145.9c0.2,0,0.8-0.1,1.3-0.2
		c9.2-2.2,18.3-4.5,27.5-6.7c1.1-0.3,2.4-0.5,3.3-1.2c0.6-0.5,1-1.7,1-2.6c0-1.1-0.8-1.8-2.1-1.8c-0.8,0-1.6,0-2.4,0.2
		c-3.2,0.7-6.4,1.6-9.6,2.4c-6.6,1.7-13.2,3.3-19.9,5c-1.6,0.4-2.4,1.3-2.2,2.8C78.6,145.4,79.3,145.9,81.5,145.9z M150.8,121
		c0-1.4-1.3-2.2-2.4-3.1c-4.1-3.4-8.1-6.8-12.2-10.2c-1.1-0.9-2.3-1.2-3.5-0.1c-1.1,1.1-1.2,2.4-0.2,3.7c0.3,0.4,0.7,0.8,1.1,1.1
		c3.2,2.7,6.5,5.5,9.7,8.1c1.4,1.1,2.8,2.2,4.3,2.9C149.3,124.3,150.8,123,150.8,121z M95.2,164.6c4.8-0.1,8.3-1.5,11.3-4.1
		c0.7-0.6,1.2-1.8,1.1-2.6c-0.3-1.9-2.2-2.5-3.9-1.3c-4.5,3.2-9.1,3.8-13.8,0.6c-0.5-0.3-1.1-0.6-1.6-0.6c-0.8,0-1.9,0.2-2.3,0.7
		c-0.4,0.6-0.5,1.7-0.3,2.5c0.1,0.6,0.8,1.3,1.4,1.7C89.8,163.3,92.6,164.7,95.2,164.6z M150.9,73.5
		C150.9,73.5,150.9,73.5,150.9,73.5c-2.6,0-5.1-0.2-7.7,0.1c-1,0.1-2.2,0.9-2.8,1.7c-0.4,0.5-0.1,2,0.4,2.4c0.7,0.7,1.9,1.1,2.8,1.1
		c4.9,0.1,9.8,0.1,14.8,0c0.9,0,2-0.5,2.6-1.1c0.5-0.5,0.7-1.7,0.6-2.4c-0.3-1.3-1.5-1.8-2.7-1.8C156.1,73.5,153.5,73.5,150.9,73.5z
		 M59.6,109.3c-0.6-0.8-0.9-1.9-1.5-2c-0.8-0.3-2.2-0.2-2.8,0.3c-4.4,3.6-8.7,7.2-13,10.9c-0.4,0.4-0.7,0.9-0.9,1.5
		c-0.3,1.1,0.1,2.2,1.1,2.8c1.2,0.7,2.4,0.3,3.4-0.5c4-3.3,7.9-6.6,11.8-10.1C58.6,111.5,58.9,110.4,59.6,109.3z M41.8,73.5
		c-2.4,0-4.8,0-7.2,0c-1.4,0-2.7,0.5-3.1,2.1c-0.5,2,0.6,3.3,2.8,3.3c4.6,0,9.3,0,13.9,0c0.5,0,1-0.1,1.4-0.2c1.3-0.4,2.4-1,2.4-2.6
		c0-1.2-1.7-2.6-3.2-2.6C46.5,73.5,44.1,73.5,41.8,73.5z M143.3,39c-0.7-0.8-1.2-1.6-1.9-2.1c-1.1-0.8-2.2-0.3-3.1,0.5
		c-3.8,3.3-7.6,6.6-11.4,9.9c-0.9,0.8-1.4,1.9-0.8,3c0.4,0.7,1.4,1.3,2.3,1.4c0.7,0.1,1.6-0.3,2.2-0.8c3.7-3.1,7.4-6.2,11-9.4
		C142.2,40.9,142.6,40,143.3,39z M66,49.5c-0.7-1-1.1-1.9-1.7-2.5c-1-1.1-2.2-2-3.4-2.9c-2.4-2.1-4.8-4.1-7.2-6.2
		c-1.1-1-2.7-1-3.7-0.1c-1.2,1.1-1,2.3-0.1,3.5c0.5,0.7,1.2,1.4,1.8,2c0.8,0.8,1.7,1.4,2.6,2.2c2.2,1.8,4.4,3.7,6.6,5.5
		c1,0.8,2.2,1.2,3.4,0.4C65.1,50.9,65.4,50.2,66,49.5z M99.1,25.4C99.1,25.4,99.1,25.4,99.1,25.4c0-0.6,0-1.3,0-1.9
		c0-0.7,0.1-1.4,0-2.1c-0.2-1.8-1.5-2.9-2.9-2.8c-1.3,0.1-2.2,1.2-2.2,3c0,4,0,7.9,0,11.9c0,1.1-0.2,2.2,0.1,3.2
		c0.3,0.8,1.1,1.7,1.8,1.8c0.8,0.1,1.8-0.6,2.5-1.2c0.4-0.3,0.5-1.2,0.5-1.8C99.1,32.1,99.1,28.8,99.1,25.4z"/>
	<path class="st0" d="M95.3,43.8c15.9,0.1,26.7,6.9,34.1,19.3c4.4,7.4,5.4,15.5,4.4,23.9c-0.8,7-3.8,13.2-8.5,18.5
		c-2.2,2.5-4.6,5-6.5,7.7c-2.4,3.3-3.8,7.2-4.1,11.3c-0.1,1.9-1.1,3-3,3.4c-5.4,1.3-10.8,2.8-16.1,4.1c-4.3,1.1-8.7,2.2-13,3.3
		c-2.1,0.5-4.1-0.2-4.5-1.7c-0.3-1.5,1.2-3.1,3.2-3.6c6.8-1.6,13.6-3.3,20.4-4.9c2.2-0.5,4.4-0.9,6.5-1.6c0.6-0.2,1.5-1,1.5-1.6
		c0.6-5,2.6-9.4,5.7-13.2c2.4-3,5.2-5.6,7.5-8.6c5.7-7.5,7.2-16,5.3-25.1c-2.1-10.4-8.3-18-17.6-22.8c-5.6-2.9-11.8-3.6-18.1-2.9
		c-3.6,0.4-6.9,1.3-10.1,2.8c-5.2,2.3-9.1,6.1-12.4,10.7c-3.6,5-5.5,10.6-5.8,16.9C63.7,90.3,67.3,99,75,106.3
		c3.5,3.3,5.6,7.6,7.2,12c0.9,2.6,1.4,5.3,1.8,8c0.1,0.9-0.4,2.2-1.1,2.8c-1.6,1.3-3.2,0.6-3.8-1.4c-0.5-1.7-0.7-3.5-1.1-5.2
		c-1.2-5-3.7-9.3-7.2-13.1c-4.2-4.6-8.1-9.3-9.9-15.4c-1.7-5.6-2.4-11.3-1.7-17.2c1.2-10.2,6.1-18.2,13.6-24.7
		c4.7-4.1,10.2-6.6,16.4-7.5C91.6,44.2,94,44,95.3,43.8z"/>
	<path class="st0" d="M100.8,98.7c-0.7,0.6-1.5,1.2-2.2,1.9c-2.1,2.2-3.9,2-5.6-0.4c-0.5-0.7-1.2-1.4-1.8-2
		c-0.1,0.1-0.2,0.2-0.3,0.2c0.5,1.8,1.1,3.6,1.5,5.4c0.6,2.4,1.1,4.9,1.5,7.4c0.4,2.8,0.6,5.6,0.7,8.5c0,0.8-0.3,1.7-0.7,2.4
		c-0.6,1.1-1.9,1.4-2.9,0.9c-0.7-0.3-1.3-1.3-1.6-2.1c-0.3-0.8-0.1-1.7-0.1-2.6c-0.1-7.3-1.6-14.3-4.5-21c-0.3-0.6-0.5-1.2-0.7-1.8
		c-0.5-1.9,0.5-3.4,2.5-3.5c3.1-0.2,6.1,0.6,8.6,2.5c1,0.8,1.6,0.7,2.5,0c2.1-1.5,4.5-2.5,7.2-2.5c2.9,0,4,1.7,3.1,4.5
		c-1.5,4.8-3.1,9.6-4.3,14.5c-0.7,2.7-0.5,5.6-0.7,8.5c-0.1,0.8,0,1.7-0.4,2.3c-0.3,0.6-1.1,1.3-1.7,1.3c-0.8,0-1.8-0.6-2.4-1.1
		c-0.4-0.4-0.4-1.3-0.5-2c-0.3-4.7,0.3-9.3,1.4-13.8c0.6-2.4,1.3-4.8,1.9-7.2C100.9,98.8,100.8,98.8,100.8,98.7z"/>
	<path class="st0" d="M114.7,146.3c0,1.5-1.1,2.6-2.8,3c-8.2,2-16.4,3.9-24.6,5.9c-1.9,0.5-3.7,1-5.6,1.4c-1.7,0.3-2.9-0.5-3.2-1.9
		c-0.4-1.6,0.1-2.5,2-3c4.8-1.3,9.7-2.5,14.6-3.7c5.2-1.3,10.3-2.6,15.5-4C112.7,143.5,114.7,144.6,114.7,146.3z"/>
	<path class="st0" d="M81.5,145.9c-2.2,0-2.9-0.6-3.1-2.1c-0.2-1.5,0.6-2.4,2.2-2.8c6.6-1.7,13.2-3.3,19.9-5
		c3.2-0.8,6.4-1.6,9.6-2.4c0.8-0.2,1.6-0.1,2.4-0.2c1.2,0,2.1,0.7,2.1,1.8c0,0.9-0.4,2.1-1,2.6c-0.9,0.7-2.1,0.9-3.3,1.2
		c-9.2,2.3-18.3,4.5-27.5,6.7C82.3,145.8,81.7,145.9,81.5,145.9z"/>
	<path class="st0" d="M150.8,121c0,2.1-1.5,3.3-3.1,2.6c-1.6-0.7-3-1.8-4.3-2.9c-3.3-2.7-6.5-5.4-9.7-8.1c-0.4-0.3-0.8-0.7-1.1-1.1
		c-1-1.3-0.9-2.7,0.2-3.7c1.2-1.1,2.3-0.9,3.5,0.1c4.1,3.4,8.1,6.8,12.2,10.2C149.5,118.8,150.8,119.5,150.8,121z"/>
	<path class="st0" d="M95.2,164.6c-2.6,0.1-5.5-1.3-8.2-3c-0.6-0.4-1.2-1.1-1.4-1.7c-0.2-0.8-0.2-1.9,0.3-2.5
		c0.4-0.5,1.5-0.6,2.3-0.7c0.5,0,1.2,0.3,1.6,0.6c4.8,3.3,9.3,2.6,13.8-0.6c1.7-1.2,3.7-0.6,3.9,1.3c0.1,0.8-0.4,2-1.1,2.6
		C103.5,163.1,100,164.5,95.2,164.6z"/>
	<path class="st0" d="M150.9,73.5c2.6,0,5.2,0,7.9,0c1.3,0,2.4,0.5,2.7,1.8c0.2,0.8,0,1.9-0.6,2.4c-0.6,0.6-1.7,1.1-2.6,1.1
		c-4.9,0.1-9.8,0.1-14.8,0c-1,0-2.2-0.5-2.8-1.1c-0.5-0.5-0.7-2-0.4-2.4c0.6-0.8,1.8-1.6,2.8-1.7C145.7,73.4,148.3,73.5,150.9,73.5
		C150.9,73.5,150.9,73.5,150.9,73.5z"/>
	<path class="st0" d="M59.6,109.3c-0.6,1.1-1,2.2-1.7,2.8c-3.9,3.4-7.9,6.7-11.8,10.1c-1,0.9-2.2,1.2-3.4,0.5
		c-1.1-0.6-1.4-1.6-1.1-2.8c0.1-0.5,0.4-1.1,0.9-1.5c4.3-3.7,8.6-7.4,13-10.9c0.6-0.5,1.9-0.5,2.8-0.3
		C58.7,107.5,59,108.5,59.6,109.3z"/>
	<path class="st0" d="M41.8,73.5c2.3,0,4.7,0,7,0c1.5,0,3.2,1.3,3.2,2.6c0,1.6-1.1,2.2-2.4,2.6c-0.5,0.1-0.9,0.2-1.4,0.2
		c-4.6,0-9.3,0-13.9,0c-2.2,0-3.3-1.3-2.8-3.3c0.4-1.6,1.7-2,3.1-2.1C36.9,73.5,39.4,73.5,41.8,73.5z"/>
	<path class="st0" d="M143.3,39c-0.7,1-1.1,1.9-1.7,2.4c-3.6,3.2-7.3,6.3-11,9.4c-0.6,0.5-1.5,0.9-2.2,0.8c-0.8-0.1-1.8-0.7-2.3-1.4
		c-0.7-1.1-0.2-2.2,0.8-3c3.8-3.3,7.6-6.6,11.4-9.9c0.9-0.8,2-1.2,3.1-0.5C142.1,37.4,142.6,38.2,143.3,39z"/>
	<path class="st0" d="M66,49.5c-0.6,0.7-1,1.5-1.5,1.8C63.3,52,62,51.6,61,50.8c-2.3-1.8-4.4-3.7-6.6-5.5c-0.9-0.7-1.8-1.4-2.6-2.2
		c-0.7-0.6-1.3-1.3-1.8-2c-0.8-1.1-1-2.4,0.1-3.5c0.9-0.9,2.5-0.9,3.7,0.1c2.4,2,4.8,4.1,7.2,6.2c1.1,1,2.3,1.9,3.4,2.9
		C64.9,47.6,65.4,48.5,66,49.5z"/>
	<path class="st0" d="M99.1,25.4c0,3.4,0,6.7,0,10.1c0,0.6-0.1,1.5-0.5,1.8c-0.7,0.6-1.7,1.3-2.5,1.2c-0.7-0.1-1.6-1-1.8-1.8
		c-0.3-1-0.1-2.1-0.1-3.2c0-4,0-7.9,0-11.9c0-1.8,0.8-2.9,2.2-3c1.4-0.1,2.7,1.1,2.9,2.8c0.1,0.7,0,1.4,0,2.1
		C99.1,24.1,99.1,24.7,99.1,25.4C99.1,25.4,99.1,25.4,99.1,25.4z"/>
</g>
</svg>
