<?xml version="1.0" encoding="utf-8"?>
<!-- Generator: Adobe Illustrator 22.0.0, SVG Export Plug-In . SVG Version: 6.00 Build 0)  -->
<svg version="1.1" id="Laag_1" xmlns="http://www.w3.org/2000/svg" xmlns:xlink="http://www.w3.org/1999/xlink" x="0px" y="0px"
	 viewBox="0 0 192 188" style="enable-background:new 0 0 192 188;" xml:space="preserve">
<style type="text/css">
	.st0{fill:#FFFFFF;}
</style>
<g>
	<g>
		<path class="st0" d="M130.4,137.4c-0.7,0-1.4-0.2-2.1-0.5L53.9,98.7c-1.6-0.8-2.5-2.4-2.5-4.2c0-1.7,1-3.3,2.6-4.1l76.3-36.2
			c2.3-1.1,5-0.1,6.1,2.2c1.1,2.3,0.1,5-2.2,6.1L66.4,94.8l66.1,33.9c2.3,1.2,3.1,3.9,2,6.2C133.7,136.5,132,137.4,130.4,137.4z"/>
		<path class="st0" d="M130.4,139.1c-1,0-2-0.2-2.9-0.7l-74.4-38.1c-2.2-1.1-3.5-3.3-3.5-5.8c0-2.4,1.4-4.6,3.6-5.6l76.3-36.2
			c1.5-0.7,3.3-0.8,4.9-0.2c1.6,0.6,2.9,1.7,3.6,3.3c1.5,3.2,0.1,7-3,8.5L70.4,94.9l62.9,32.3c3.1,1.6,4.4,5.4,2.8,8.6
			C134.9,137.8,132.8,139.1,130.4,139.1z M132.3,55.6c-0.4,0-0.8,0.1-1.2,0.3L54.8,92.1c-1,0.5-1.6,1.4-1.6,2.5
			c0,1.1,0.6,2.1,1.5,2.5l74.4,38.1c0.4,0.2,0.8,0.3,1.3,0.3c1.1,0,2-0.6,2.5-1.5c0.7-1.4,0.2-3.1-1.2-3.8L65.6,96.4
			c-0.6-0.3-1-0.9-1-1.6c0-0.7,0.4-1.3,1-1.6L133.5,61c1.4-0.7,2-2.3,1.3-3.7c-0.3-0.7-0.9-1.2-1.6-1.4
			C133,55.7,132.6,55.6,132.3,55.6z"/>
	</g>
</g>
</svg>
