<?xml version="1.0" encoding="utf-8"?>
<!-- Generator: Adobe Illustrator 22.0.0, SVG Export Plug-In . SVG Version: 6.00 Build 0)  -->
<svg version="1.1" id="Laag_1" xmlns="http://www.w3.org/2000/svg" xmlns:xlink="http://www.w3.org/1999/xlink" x="0px" y="0px"
	 viewBox="0 0 192 188" style="enable-background:new 0 0 192 188;" xml:space="preserve">
<style type="text/css">
	.st0{fill:#FFFFFF;}
</style>
<g>
	<path class="st0" d="M96.1,185.3c-50.5,0-90.4-39.9-90.4-90.4c0-50.4,40-90.3,90.5-90.3c50.4,0,90.2,40.1,90.2,90.6
		C186.3,145.4,146.3,185.3,96.1,185.3z M155.6,150.1c31.2-31.9,28-87.5-6-116.4C112.6,2.4,58.1,8.5,30.1,47.2
		c-26.3,36.3-15.6,82.6,6.7,102.3c0.3-1.1,0.6-2,0.7-3c2.7-16.6,13.4-25.8,30.2-25.8c19.1,0,38.3-0.1,57.4,0
		c15.7,0.1,26.5,9,29.5,24.4C154.9,146.6,155.2,148,155.6,150.1z"/>
	<path class="st0" d="M95.8,36.7c22.5,0,39.5,16.2,39.5,37.7c0,22.6-17.6,41-39.1,41c-21.9,0-39.5-18.3-39.5-41.2
		C56.7,52.9,73.7,36.7,95.8,36.7z"/>
</g>
</svg>
