<?xml version="1.0" encoding="utf-8"?>
<!-- Generator: Adobe Illustrator 22.0.0, SVG Export Plug-In . SVG Version: 6.00 Build 0)  -->
<svg version="1.1" id="Laag_1" xmlns="http://www.w3.org/2000/svg" xmlns:xlink="http://www.w3.org/1999/xlink" x="0px" y="0px"
	 viewBox="0 0 141.7 141.7" style="enable-background:new 0 0 141.7 141.7;" xml:space="preserve">
<style type="text/css">
	.st0{fill:#FFFFFF;}
	.st1{fill:#D6D6D6;}
</style>
<g>
	<path class="st0" d="M71.7,17.6L83.5,54c0.1,0.3,0.4,0.5,0.7,0.5h38.2c0.7,0,1,0.9,0.4,1.4L92,78.4c-0.3,0.2-0.4,0.5-0.3,0.9
		l11.8,36.4c0.2,0.7-0.6,1.3-1.2,0.9L71.4,94c-0.3-0.2-0.6-0.2-0.9,0l-30.9,22.5c-0.6,0.4-1.4-0.2-1.2-0.9l11.8-36.4
		c0.1-0.3,0-0.7-0.3-0.9L19,55.9c-0.6-0.4-0.3-1.4,0.4-1.4h38.2c0.3,0,0.6-0.2,0.7-0.5l11.8-36.4C70.5,16.9,71.5,16.9,71.7,17.6z"/>
	<path class="st1" d="M102.8,119.1c-0.7,0-1.3-0.2-1.9-0.6L71,96.7l-29.9,21.7c-1.1,0.8-2.7,0.8-3.8,0c-1.1-0.8-1.6-2.3-1.2-3.7
		l11.4-35.2L17.6,57.9c-1.1-0.8-1.6-2.3-1.2-3.6c0.4-1.4,1.7-2.3,3.1-2.3h37l11.4-35.2c0.4-1.3,1.7-2.3,3.1-2.3
		c1.4,0,2.7,0.9,3.1,2.3L85.5,52h37c1.4,0,2.7,0.9,3.1,2.3c0.4,1.4,0,2.8-1.2,3.7L94.5,79.6l11.4,35.2c0.4,1.3,0,2.8-1.2,3.6
		C104.2,118.9,103.5,119.1,102.8,119.1z M24.8,57l26.6,19.3c1.1,0.8,1.6,2.3,1.2,3.6l-10.2,31.3l26.6-19.3c1.1-0.8,2.7-0.8,3.8,0
		l26.6,19.3L89.4,80c-0.4-1.3,0-2.8,1.2-3.7L117.2,57H84.3c-1.4,0-2.7-0.9-3.1-2.3L71,23.5L60.8,54.7c-0.4,1.3-1.7,2.3-3.1,2.3H24.8
		z M69.4,18.4C69.4,18.4,69.4,18.4,69.4,18.4L69.4,18.4z"/>
</g>
</svg>
