<?xml version="1.0" encoding="utf-8"?>
<!-- Generator: Adobe Illustrator 21.1.0, SVG Export Plug-In . SVG Version: 6.00 Build 0)  -->
<svg version="1.1" id="Laag_1" xmlns="http://www.w3.org/2000/svg" xmlns:xlink="http://www.w3.org/1999/xlink" x="0px" y="0px"
	 viewBox="0 0 192 188" style="enable-background:new 0 0 192 188;" xml:space="preserve">
<style type="text/css">
	.st0{fill:#FFFFFF;}
</style>
<path class="st0" d="M167.8,82c-1-1.4-2.5-2.1-4.2-2.4c-4.8-0.8-9.6-1.6-14.4-2.4c-0.8-0.1-1.1-0.5-1.3-1.2
	c-1.4-3.8-2.8-7.5-4.2-11.3c-0.1-0.4-0.1-1.1,0.2-1.4c2.9-3.7,5.8-7.3,8.8-10.9c2.7-3.2,2.9-6.7,0.2-9.9c-2-2.4-4.2-4.7-6.4-7
	c-2-2.1-5.1-2.7-7.7-1.2c-3.7,2.1-7.3,4.4-10.8,6.7c-3,2-3,2-6,0.2c-4.8-3-9.9-5.2-15.3-6.6c-1.1-0.3-1.5-0.8-1.7-1.9
	c-0.7-4.7-1.5-9.4-2.3-14c-0.5-3.2-2.6-4.9-5.5-5.9c-4,0-8,0-12,0c-0.8,0.4-1.6,0.7-2.3,1.2c-1.6,1-2.6,2.5-3,4.4
	c-0.8,4.9-1.7,9.8-2.5,14.6c-0.1,0.8-0.4,1.2-1.2,1.4c-5.2,1.3-10,3.4-14.6,6c-0.7,0.4-1.1,0.4-1.8-0.1c-3.7-2.7-7.5-5.4-11.2-8.1
	c-3.3-2.4-6.8-2.1-9.7,0.8c-1.9,1.9-3.9,3.9-5.8,5.8c-2.8,2.8-3.1,6.4-0.7,9.7c2.7,3.7,5.4,7.5,8.1,11.2c0.4,0.6,0.5,1,0.1,1.7
	c-2.7,4.6-4.8,9.5-6,14.7c-0.2,0.8-0.7,0.9-1.4,1c-4.3,0.7-8.6,1.5-12.9,2.1c-3.7,0.5-6.2,2.1-7.4,5.7c0,4,0,8,0,12
	c0.5,1,0.9,2.1,1.6,2.9c1.1,1.4,2.6,2.2,4.3,2.5c4.8,0.8,9.6,1.6,14.4,2.4c0.6,0.1,1.2,0.2,1.3,1c1,4.1,2.5,8,4.4,11.8
	c0.4,0.8,0.3,1.4-0.3,2.1c-2.9,3.6-5.9,7.2-8.8,10.9c-2.4,2.9-2.5,6.2-0.1,9.1c2.1,2.5,4.3,5,6.5,7.4c2.1,2.2,5.5,2.6,8.2,1
	c4.3-2.6,8.5-5.3,12.7-7.9c0.7-0.4,1.2-0.5,1.9,0c5.3,3.5,10.9,6,17,7.5c0.8,0.2,1.2,0.6,1.3,1.5c0.8,4.9,1.6,9.7,2.5,14.5
	c0.5,2.7,2.2,4.3,4.6,5.3c0.2,0.1,0.4,0.2,0.6,0.3c4,0,8,0,12,0c1-0.5,2.1-0.9,3-1.5c1.4-1,2.2-2.6,2.5-4.3
	c0.8-4.6,1.6-9.3,2.3-13.9c0.2-1.1,0.5-1.7,1.7-2c4.8-1.2,9.2-3,13.5-5.5c1.1-0.6,1.8-0.5,2.7,0.2c4,2.9,7.9,5.8,12,8.5
	c2.8,1.9,6.2,1.5,8.6-0.8c2.2-2.1,4.4-4.3,6.5-6.5c2.4-2.5,2.7-5.9,0.7-8.8c-2.8-4-5.6-8-8.5-11.9c-0.6-0.9-0.8-1.6-0.2-2.5
	c2.6-4.4,4.6-9.2,5.8-14.1c0.2-0.8,0.6-1.1,1.4-1.2c4.8-0.8,9.5-1.6,14.3-2.4c2.8-0.5,4.6-2.1,5.6-4.7c0.1-0.2,0.2-0.4,0.3-0.7
	c0-4,0-8,0-12C168.8,83.9,168.5,82.8,167.8,82z M91.1,130.4c-21.8,0-39.5-17.7-39.5-39.5s17.7-39.5,39.5-39.5s39.5,17.7,39.5,39.5
	S112.9,130.4,91.1,130.4z"/>
</svg>
